<svg xmlns="http://www.w3.org/2000/svg" width="1100" height="600" viewBox="0 0 1100 600" fill="none">
  <style>
    text { font-family: Avenir, Helvetica, sans-serif; font-size: 11px; fill: #333; text-anchor: middle; dominant-baseline: central; }
  </style>

  <!-- Edges: inter-cluster -->
  <line x1="290" y1="196" x2="771" y2="177" stroke="#424141" stroke-opacity="0.3" stroke-width="1"/>
  <line x1="329" y1="274" x2="589" y2="456" stroke="#424141" stroke-opacity="0.3" stroke-width="1"/>
  <line x1="290" y1="196" x2="511" y2="417" stroke="#424141" stroke-opacity="0.3" stroke-width="1"/>
  <line x1="368" y1="157" x2="771" y2="177" stroke="#424141" stroke-opacity="0.3" stroke-width="1"/>
  <line x1="719" y1="235" x2="667" y2="430" stroke="#424141" stroke-opacity="0.3" stroke-width="1"/>
  <line x1="771" y1="177" x2="667" y2="430" stroke="#424141" stroke-opacity="0.3" stroke-width="1"/>
  <line x1="225" y1="144" x2="849" y2="131" stroke="#424141" stroke-opacity="0.3" stroke-width="1"/>
  <line x1="381" y1="235" x2="693" y2="495" stroke="#424141" stroke-opacity="0.3" stroke-width="1"/>

  <!-- Edges: Cluster A (green) intra-cluster -->
  <line x1="290" y1="196" x2="225" y2="144" stroke="#424141" stroke-opacity="0.3" stroke-width="1.5"/>
  <line x1="290" y1="196" x2="368" y2="157" stroke="#424141" stroke-opacity="0.3" stroke-width="1.5"/>
  <line x1="290" y1="196" x2="329" y2="274" stroke="#424141" stroke-opacity="0.3" stroke-width="1.5"/>
  <line x1="290" y1="196" x2="212" y2="261" stroke="#424141" stroke-opacity="0.3" stroke-width="1.5"/>
  <line x1="290" y1="196" x2="381" y2="235" stroke="#424141" stroke-opacity="0.3" stroke-width="1.5"/>
  <line x1="225" y1="144" x2="368" y2="157" stroke="#424141" stroke-opacity="0.3" stroke-width="1"/>
  <line x1="225" y1="144" x2="160" y2="209" stroke="#424141" stroke-opacity="0.3" stroke-width="1"/>
  <line x1="368" y1="157" x2="381" y2="235" stroke="#424141" stroke-opacity="0.3" stroke-width="1"/>
  <line x1="329" y1="274" x2="212" y2="261" stroke="#424141" stroke-opacity="0.3" stroke-width="1"/>
  <line x1="160" y1="209" x2="212" y2="261" stroke="#424141" stroke-opacity="0.3" stroke-width="1"/>
  <line x1="290" y1="196" x2="160" y2="209" stroke="#424141" stroke-opacity="0.3" stroke-width="1.5"/>
  <line x1="381" y1="235" x2="329" y2="274" stroke="#424141" stroke-opacity="0.3" stroke-width="1"/>

  <!-- Edges: Cluster B (blue) intra-cluster -->
  <line x1="771" y1="177" x2="706" y2="118" stroke="#424141" stroke-opacity="0.3" stroke-width="1.5"/>
  <line x1="771" y1="177" x2="849" y2="131" stroke="#424141" stroke-opacity="0.3" stroke-width="1.5"/>
  <line x1="771" y1="177" x2="823" y2="248" stroke="#424141" stroke-opacity="0.3" stroke-width="1.5"/>
  <line x1="771" y1="177" x2="719" y2="235" stroke="#424141" stroke-opacity="0.3" stroke-width="1.5"/>
  <line x1="771" y1="177" x2="901" y2="196" stroke="#424141" stroke-opacity="0.3" stroke-width="1.5"/>
  <line x1="706" y1="118" x2="849" y2="131" stroke="#424141" stroke-opacity="0.3" stroke-width="1"/>
  <line x1="849" y1="131" x2="901" y2="196" stroke="#424141" stroke-opacity="0.3" stroke-width="1"/>
  <line x1="823" y1="248" x2="719" y2="235" stroke="#424141" stroke-opacity="0.3" stroke-width="1"/>
  <line x1="823" y1="248" x2="901" y2="196" stroke="#424141" stroke-opacity="0.3" stroke-width="1"/>
  <line x1="706" y1="118" x2="719" y2="235" stroke="#424141" stroke-opacity="0.3" stroke-width="1"/>
  <line x1="771" y1="177" x2="680" y2="196" stroke="#424141" stroke-opacity="0.3" stroke-width="1.5"/>
  <line x1="680" y1="196" x2="706" y2="118" stroke="#424141" stroke-opacity="0.3" stroke-width="1"/>
  <line x1="680" y1="196" x2="719" y2="235" stroke="#424141" stroke-opacity="0.3" stroke-width="1"/>

  <!-- Edges: Cluster C (orange) intra-cluster -->
  <line x1="589" y1="456" x2="511" y2="417" stroke="#424141" stroke-opacity="0.3" stroke-width="1.5"/>
  <line x1="589" y1="456" x2="667" y2="430" stroke="#424141" stroke-opacity="0.3" stroke-width="1.5"/>
  <line x1="589" y1="456" x2="550" y2="521" stroke="#424141" stroke-opacity="0.3" stroke-width="1.5"/>
  <line x1="589" y1="456" x2="654" y2="521" stroke="#424141" stroke-opacity="0.3" stroke-width="1.5"/>
  <line x1="589" y1="456" x2="693" y2="495" stroke="#424141" stroke-opacity="0.3" stroke-width="1.5"/>
  <line x1="511" y1="417" x2="550" y2="521" stroke="#424141" stroke-opacity="0.3" stroke-width="1"/>
  <line x1="667" y1="430" x2="693" y2="495" stroke="#424141" stroke-opacity="0.3" stroke-width="1"/>
  <line x1="654" y1="521" x2="693" y2="495" stroke="#424141" stroke-opacity="0.3" stroke-width="1"/>
  <line x1="550" y1="521" x2="654" y2="521" stroke="#424141" stroke-opacity="0.3" stroke-width="1"/>
  <line x1="511" y1="417" x2="667" y2="430" stroke="#424141" stroke-opacity="0.3" stroke-width="1"/>

  <!-- Cluster A nodes (green, top-left) -->
  <circle cx="290" cy="196" r="20" fill="#00693e" fill-opacity="0.8" stroke="white" stroke-width="1.5"/>
  <text x="290" y="196" fill="white" font-weight="bold">A1</text>

  <circle cx="225" cy="144" r="14" fill="#00693e" fill-opacity="0.8" stroke="white" stroke-width="1.5"/>
  <text x="225" y="144" fill="white">A2</text>

  <circle cx="368" cy="157" r="13" fill="#00693e" fill-opacity="0.8" stroke="white" stroke-width="1.5"/>
  <text x="368" y="157" fill="white">A3</text>

  <circle cx="329" cy="274" r="11" fill="#00693e" fill-opacity="0.8" stroke="white" stroke-width="1.5"/>
  <text x="329" y="274" fill="white">A4</text>

  <circle cx="212" cy="261" r="11" fill="#00693e" fill-opacity="0.8" stroke="white" stroke-width="1.5"/>
  <text x="212" y="261" fill="white">A5</text>

  <circle cx="381" cy="235" r="10" fill="#00693e" fill-opacity="0.8" stroke="white" stroke-width="1.5"/>
  <text x="381" y="235" fill="white">A6</text>

  <circle cx="160" cy="209" r="10" fill="#00693e" fill-opacity="0.8" stroke="white" stroke-width="1.5"/>
  <text x="160" y="209" fill="white">A7</text>

  <!-- Cluster B nodes (blue, top-right) -->
  <circle cx="771" cy="177" r="20" fill="#267aba" fill-opacity="0.8" stroke="white" stroke-width="1.5"/>
  <text x="771" y="177" fill="white" font-weight="bold">B1</text>

  <circle cx="706" cy="118" r="14" fill="#267aba" fill-opacity="0.8" stroke="white" stroke-width="1.5"/>
  <text x="706" y="118" fill="white">B2</text>

  <circle cx="849" cy="131" r="13" fill="#267aba" fill-opacity="0.8" stroke="white" stroke-width="1.5"/>
  <text x="849" y="131" fill="white">B3</text>

  <circle cx="823" cy="248" r="12" fill="#267aba" fill-opacity="0.8" stroke="white" stroke-width="1.5"/>
  <text x="823" y="248" fill="white">B4</text>

  <circle cx="719" cy="235" r="12" fill="#267aba" fill-opacity="0.8" stroke="white" stroke-width="1.5"/>
  <text x="719" y="235" fill="white">B5</text>

  <circle cx="901" cy="196" r="11" fill="#267aba" fill-opacity="0.8" stroke="white" stroke-width="1.5"/>
  <text x="901" y="196" fill="white">B6</text>

  <circle cx="680" cy="196" r="10" fill="#267aba" fill-opacity="0.8" stroke="white" stroke-width="1.5"/>
  <text x="680" y="196" fill="white">B7</text>

  <!-- Cluster C nodes (orange, bottom-center) -->
  <circle cx="589" cy="456" r="19" fill="#ffa00f" fill-opacity="0.8" stroke="white" stroke-width="1.5"/>
  <text x="589" y="456" fill="white" font-weight="bold">C1</text>

  <circle cx="511" cy="417" r="13" fill="#ffa00f" fill-opacity="0.8" stroke="white" stroke-width="1.5"/>
  <text x="511" y="417" fill="white">C2</text>

  <circle cx="667" cy="430" r="12" fill="#ffa00f" fill-opacity="0.8" stroke="white" stroke-width="1.5"/>
  <text x="667" y="430" fill="white">C3</text>

  <circle cx="550" cy="521" r="11" fill="#ffa00f" fill-opacity="0.8" stroke="white" stroke-width="1.5"/>
  <text x="550" y="521" fill="white">C4</text>

  <circle cx="654" cy="521" r="10" fill="#ffa00f" fill-opacity="0.8" stroke="white" stroke-width="1.5"/>
  <text x="654" y="521" fill="white">C5</text>

  <circle cx="693" cy="495" r="11" fill="#ffa00f" fill-opacity="0.8" stroke="white" stroke-width="1.5"/>
  <text x="693" y="495" fill="white">C6</text>
</svg>
